<svg xmlns="http://www.w3.org/2000/svg" viewBox="0 0 302.46 48.79"><defs><style>.cls-1{fill:#fff;}.cls-2{fill:#00aed0;}</style></defs><g id="Layer_2" data-name="Layer 2"><g id="Layer_1-2" data-name="Layer 1"><path class="cls-1" d="M122.28,34.61v7.26H107.39c-5.24,0-8.65-3.46-8.65-8.65v-14c0-5.19,3.41-8.65,8.65-8.65H122v7.26H110.22c-2.6,0-3.86,1.21-3.86,3.87v9c0,2.6,1.26,3.87,3.86,3.87Z"/><path class="cls-1" d="M147,10.56v6.86H134.45V41.87h-7.62V10.56h7l.58,5.13L138,10.56Z"/><path class="cls-1" d="M157.75,30.22v.52c0,2.6,1.27,3.87,3.86,3.87h13.73v7.26H158.79c-5.25,0-8.66-3.46-8.66-8.65v-14c0-5.19,3.41-8.65,8.66-8.65h7.9c5.25,0,8.65,3.46,8.65,8.65v5.3c0,4.91-.75,5.71-5.65,5.71Zm0-1.27,3.92-5.65h6.11l-.05-1.61c0-2.66-1.21-3.87-3.87-3.87h-2.25c-2.59,0-3.86,1.21-3.86,3.87Z"/><path class="cls-1" d="M206.66,19.21V41.87H199.1V37.32l-3.57,4.55h-5.89c-5.53,0-9.8-1.21-9.8-7.09V29.3c0-5.25,2.36-6.23,7.38-7.5l10.1-2.42c1-.23,1.67-.35,1.61-1-.06-.4-.4-.52-.81-.52H182.26V10.56H198C203.26,10.56,206.66,14,206.66,19.21Zm-7.56,6.4-8.3,2.08c-2.71.75-2.71,1.67-2.71,3.69V33c0,1.85.75,2.54,3.11,2.54l7.9.06Z"/><path class="cls-1" d="M226.16,10.56v7.09h-4V41.87h-7.62V17.65h-4V10.56h4V1.5h7.62v9.24l-6.7-.18Z"/><path class="cls-1" d="M237.86,5.65l-7.61,4.91h7.61V41.87h-7.61V0h7.61Z"/><path class="cls-1" d="M275,10.56,263.19,41.87h-8.08l2.37-6.46h-7l-9.35-24.85h8.14L258,34l8.83-23.47Z"/><path class="cls-1" d="M284.87,30.22v.52c0,2.6,1.27,3.87,3.87,3.87h13.72v7.26H285.91c-5.25,0-8.65-3.46-8.65-8.65v-14c0-5.19,3.4-8.65,8.65-8.65h7.9c5.25,0,8.65,3.46,8.65,8.65v5.3c0,4.91-.75,5.71-5.65,5.71Zm0-1.27,3.92-5.65h6.12l-.06-1.61c0-2.66-1.21-3.87-3.86-3.87h-2.25c-2.6,0-3.87,1.21-3.87,3.87Z"/><polygon class="cls-2" points="237.86 0 237.86 5.65 230.25 10.56 230.25 10.56 230.25 0 237.86 0"/><rect class="cls-1" x="30.37" y="10.56" width="7.61" height="31.32"/><polygon class="cls-2" points="37.99 0 37.99 5.65 30.37 10.56 30.37 10.56 30.37 0 37.99 0"/><path class="cls-1" d="M72.31,41.87H63.14L56,32.13l-7.15,9.74h-9.4l9.92-13.2h4.1L40.18,10.56h9.29l6.11,8.3,6.34-8.3h9.46L62.16,22.44h-4Z"/><path class="cls-1" d="M73.46,10.56V41.87h7.61V10.56Z"/><polygon class="cls-2" points="81.07 0 81.07 5.65 73.46 10.56 73.46 10.56 73.46 0 81.07 0"/><path class="cls-1" d="M19.61,10.56H11.19L7.61,15.92V10.56H0V48.79H7.61V36.51l3.58,5.36h8.42c5.25,0,8.65-3.46,8.65-8.65v-14C28.26,14,24.86,10.56,19.61,10.56ZM21.77,33a2.46,2.46,0,0,1-2.45,2.46H14.49l-6.9-9.3L14.49,17h4.83a2.46,2.46,0,0,1,2.45,2.46Z"/></g></g></svg>